<svg version="1.1" id="Layer_1" xmlns="http://www.w3.org/2000/svg" xmlns:xlink="http://www.w3.org/1999/xlink" x="0px" y="0px"
	 width="100%" viewBox="0 0 1024 1024" enable-background="new 0 0 1024 1024" xml:space="preserve">
<path fill="#FBF7F0" opacity="1.000000" stroke="none" 
	d="
M570.000000,1025.000000 
	C380.000000,1025.000000 190.500000,1025.000000 1.000000,1025.000000 
	C1.000000,683.666687 1.000000,342.333344 1.000000,1.000000 
	C342.333344,1.000000 683.666687,1.000000 1025.000000,1.000000 
	C1025.000000,342.333344 1025.000000,683.666687 1025.000000,1025.000000 
	C873.500000,1025.000000 722.000000,1025.000000 570.000000,1025.000000 
M67.027313,558.838562 
	C67.698746,564.370483 68.076828,569.957092 69.096222,575.424133 
	C72.246246,592.317810 75.640739,609.165955 78.914536,626.827576 
	C86.099617,648.072021 91.771210,669.978760 100.727707,690.448120 
	C143.015244,787.092468 211.360626,860.111694 303.965851,910.407104 
	C333.146606,926.255615 363.770325,938.699768 396.723114,947.205688 
	C402.806915,948.696899 408.890717,950.188171 415.483887,951.906128 
	C415.669159,951.891357 415.854401,951.876587 416.779968,952.090393 
	C431.392853,954.733093 445.909882,958.474915 460.641144,959.759338 
	C482.428894,961.659058 504.362793,962.064636 526.246887,962.585266 
	C534.817383,962.789062 543.421387,961.583984 552.680176,961.132446 
	C553.123535,961.055542 553.566895,960.978699 554.909973,960.973267 
	C566.935547,959.302429 578.961182,957.631592 591.813110,956.026733 
	C626.200623,949.970825 659.395752,939.981750 691.327393,925.834167 
	C759.908936,895.448608 817.681152,850.888550 864.589722,792.472839 
	C900.720337,747.478821 927.454895,697.341736 943.408997,641.751465 
	C947.341370,628.049622 949.879211,613.947571 953.350586,599.522034 
	C953.561707,597.017334 953.772827,594.512695 954.042419,591.574463 
	C954.042419,591.574463 954.039978,591.137024 954.668152,590.775391 
	C954.798950,589.840637 954.929749,588.905945 955.162170,587.246277 
	C955.145630,586.516968 955.129028,585.787659 955.709900,584.691467 
	C956.097168,580.477051 956.484497,576.262573 957.026245,571.338745 
	C957.325806,570.216919 957.625427,569.095032 958.096130,567.401062 
	C958.055847,566.271484 958.015564,565.141907 958.039307,563.201477 
	C958.039185,561.846191 958.039062,560.490906 958.713379,558.708557 
	C959.138367,551.474243 959.563354,544.239990 960.042786,536.320801 
	C959.990906,535.867676 959.939026,535.414551 959.988525,534.120789 
	C959.952393,532.429199 959.916321,530.737549 960.018066,528.165649 
	C960.045349,525.794739 960.072632,523.423828 960.778625,520.541016 
	C960.550842,516.342834 960.323059,512.144592 960.043823,507.199036 
	C959.984009,506.454620 959.924255,505.710175 959.957581,504.501160 
	C959.957581,504.501160 959.871948,504.035065 960.014465,503.351715 
	C959.969177,502.890900 959.923950,502.430115 959.966797,501.501251 
	C959.966797,501.501251 959.881531,501.032623 960.027161,500.226349 
	C959.980835,499.138245 959.934570,498.050110 959.992920,496.208649 
	C960.001038,493.803192 960.009216,491.397766 960.150879,488.326752 
	C960.087402,487.882355 960.023926,487.437927 960.045654,486.259735 
	C959.737427,485.150330 959.429199,484.040924 959.075806,482.186371 
	C959.011841,481.444672 958.947876,480.702972 958.997925,479.317566 
	C959.021423,477.866119 959.044922,476.414642 959.179199,474.302643 
	C959.100342,473.865387 959.021423,473.428131 959.034546,472.310181 
	C958.722900,471.521698 958.411316,470.733185 958.049500,469.280548 
	C957.995605,468.841370 957.941711,468.402191 957.999268,467.374359 
	C958.033630,466.230865 958.067993,465.087372 958.227478,463.204712 
	C958.128357,462.466217 958.029236,461.727753 957.996033,460.383026 
	C957.704712,459.899597 957.413391,459.416199 957.061340,458.272736 
	C957.002625,457.836273 956.943909,457.399811 957.043823,456.348694 
	C956.730835,454.546783 956.417847,452.744843 956.049988,450.293762 
	C956.028015,449.860107 956.006104,449.426422 956.317627,448.494995 
	C955.912598,446.977875 955.507629,445.460754 955.043457,443.289581 
	C955.011108,442.853394 954.978699,442.417206 955.153503,441.244354 
	C954.782898,440.115112 954.412292,438.985901 954.012024,437.397980 
	C954.012024,437.397980 953.876160,436.958862 954.055176,436.184509 
	C953.718872,434.737000 953.382507,433.289490 953.051453,431.409302 
	C953.051453,431.409302 952.967041,430.984894 953.243225,430.487549 
	C952.843994,429.274200 952.444763,428.060883 952.017822,426.394287 
	C952.017822,426.394287 951.881714,425.961090 952.045410,425.211121 
	C951.712219,424.090607 951.379089,422.970093 951.036255,421.417053 
	C951.036255,421.417053 950.975281,420.988739 951.287048,420.572876 
	C951.168884,419.723419 951.050659,418.873932 950.999146,417.226074 
	C935.314453,345.889221 904.312195,282.020752 857.605835,225.826752 
	C816.253479,176.074295 766.805847,136.551392 708.394775,108.548210 
	C682.266235,96.021767 655.249878,85.761375 626.273376,78.792351 
	C585.038574,67.864037 543.057251,63.586445 500.476807,64.761475 
	C497.793365,64.835526 495.126740,65.517937 492.187042,65.296486 
	C491.545654,65.307068 490.904266,65.317650 489.449432,65.126480 
	C470.635620,67.423630 451.821777,69.720772 432.317871,71.966629 
	C431.871216,72.070900 431.424561,72.175163 430.193512,72.271111 
	C418.451294,75.149429 406.709106,78.027748 394.276459,80.899300 
	C393.842773,81.043900 393.409088,81.188507 392.247192,81.438553 
	C380.305695,85.363701 368.230438,88.927879 356.451569,93.292000 
	C334.494385,101.427208 313.174408,111.016335 292.324524,123.157097 
	C288.570190,125.305626 284.769135,127.376846 281.068604,129.614319 
	C227.696823,161.884613 183.426834,203.914093 147.295334,254.623917 
	C132.587006,275.266724 119.523071,296.892456 108.755951,320.278412 
	C108.593819,320.484131 108.498207,320.717133 108.116707,321.441650 
	C108.094208,321.634613 108.071716,321.827606 107.638908,322.571411 
	C102.746811,334.382599 97.854706,346.193787 92.789993,358.201538 
	C92.789993,358.201538 92.922417,358.427155 92.370735,358.970490 
	C90.027809,365.972565 87.684883,372.974670 85.087509,380.472260 
	C85.091927,380.657898 85.096336,380.843506 84.802368,381.703217 
	C80.924316,397.463501 77.046265,413.223785 72.967827,429.628510 
	C72.957626,430.075958 72.947426,430.523438 72.571640,431.640198 
	C70.375633,447.501526 66.772537,463.321198 66.301590,479.233582 
	C65.525612,505.452179 66.775551,531.730713 67.027313,558.838562 
z"/>
<path fill="#309DA2" opacity="1.000000" stroke="none" 
	d="
M490.262878,65.328224 
	C490.904266,65.317650 491.545654,65.307068 492.823914,65.632568 
	C516.941589,66.978424 540.491943,67.199814 563.879944,69.262573 
	C580.741089,70.749687 597.379517,74.728355 614.132080,77.506104 
	C618.381775,78.210747 622.688232,78.573601 626.968567,79.093506 
	C655.249878,85.761375 682.266235,96.021767 708.394775,108.548210 
	C766.805847,136.551392 816.253479,176.074295 857.605835,225.826752 
	C904.312195,282.020752 935.314453,345.889221 950.721924,417.807465 
	C950.621582,419.255493 950.798401,420.122131 950.975220,420.988739 
	C950.975281,420.988739 951.036255,421.417053 951.021423,422.002869 
	C951.298279,423.712799 951.589966,424.836945 951.881714,425.961090 
	C951.881714,425.961090 952.017822,426.394287 952.014404,426.996490 
	C952.329651,428.727448 952.648315,429.856171 952.967041,430.984894 
	C952.967041,430.984894 953.051453,431.409302 953.033081,432.017029 
	C953.301880,434.069458 953.589050,435.514160 953.876160,436.958862 
	C953.876160,436.958862 954.012024,437.397980 954.012512,438.001038 
	C954.324158,439.729706 954.635254,440.855347 954.946350,441.981018 
	C954.978699,442.417206 955.011108,442.853394 954.821411,443.811890 
	C955.061035,445.887024 955.522644,447.439911 955.984192,448.992767 
	C956.006104,449.426422 956.028015,449.860107 955.819580,450.821228 
	C956.021118,453.220276 956.453125,455.091827 956.885193,456.963348 
	C956.943909,457.399811 957.002625,457.836273 956.853027,458.763885 
	C957.073181,459.833130 957.501648,460.411194 957.930176,460.989258 
	C958.029236,461.727753 958.128357,462.466217 957.888794,463.769165 
	C957.662659,465.543396 957.775208,466.753204 957.887817,467.963013 
	C957.941711,468.402191 957.995605,468.841370 957.813477,469.806458 
	C958.032471,471.218506 958.487488,472.104706 958.942566,472.990875 
	C959.021423,473.428131 959.100342,473.865387 958.844727,474.850647 
	C958.634766,476.919495 958.759338,478.440399 958.883911,479.961273 
	C958.947876,480.702972 959.011841,481.444672 958.822693,482.775360 
	C959.033264,484.574066 959.496887,485.783783 959.960510,486.993469 
	C960.023926,487.437927 960.087402,487.882355 959.795349,488.919678 
	C959.589294,491.995728 959.738770,494.478882 959.888184,496.962006 
	C959.934570,498.050110 959.980835,499.138245 959.804565,500.713257 
	C959.680908,501.456543 959.779785,501.712921 959.878662,501.969299 
	C959.923950,502.430115 959.969177,502.890900 959.796204,503.776978 
	C959.524719,504.300598 959.401489,504.446503 959.430420,504.489075 
	C959.550049,504.665009 959.715698,504.809631 959.864441,504.965759 
	C959.924255,505.710175 959.984009,506.454620 959.765442,507.860596 
	C959.691345,512.699097 959.895630,516.876038 960.099976,521.052917 
	C960.072632,523.423828 960.045349,525.794739 959.697021,528.858948 
	C959.546326,531.355286 959.716736,533.158386 959.887207,534.961426 
	C959.939026,535.414551 959.990906,535.867676 959.728149,536.934204 
	C958.955383,544.743652 958.497192,551.939636 958.039001,559.135620 
	C958.039062,560.490906 958.039185,561.846191 957.751404,563.813721 
	C957.617310,565.608337 957.771118,566.790710 957.924988,567.973145 
	C957.625427,569.095032 957.325806,570.216919 956.690552,571.962036 
	C955.940796,576.742981 955.526611,580.900635 955.112488,585.058350 
	C955.129028,585.787659 955.145630,586.516968 954.832031,587.823608 
	C954.347900,589.312988 954.193970,590.225037 954.039978,591.137024 
	C954.039978,591.137024 954.042419,591.574463 953.737488,592.025513 
	C953.307800,594.994263 953.182983,597.511841 953.058167,600.029480 
	C949.879211,613.947571 947.341370,628.049622 943.408997,641.751465 
	C927.454895,697.341736 900.720337,747.478821 864.589722,792.472839 
	C817.681152,850.888550 759.908936,895.448608 691.327393,925.834167 
	C659.395752,939.981750 626.200623,949.970825 591.126953,955.714111 
	C588.985474,955.321472 587.502686,955.019958 586.079468,955.197205 
	C576.354736,956.408569 566.636047,957.675537 556.935608,959.065308 
	C555.894226,959.214539 554.982239,960.267883 554.010254,960.901855 
	C553.566895,960.978699 553.123535,961.055542 552.052429,960.778076 
	C545.173950,960.610718 538.920471,961.019531 532.673096,960.940613 
	C517.755554,960.752075 502.841736,960.286682 487.924835,960.019531 
	C468.700195,959.675232 449.799103,956.767578 430.949738,953.240051 
	C426.064819,952.325867 421.014160,952.297302 416.039642,951.861877 
	C415.854401,951.876587 415.669159,951.891357 415.138153,951.458008 
	C408.537842,949.640442 402.283295,948.271057 396.028748,946.901611 
	C363.770325,938.699768 333.146606,926.255615 303.965851,910.407104 
	C211.360626,860.111694 143.015244,787.092468 100.727707,690.448120 
	C91.771210,669.978760 86.099617,648.072021 79.216278,626.188354 
	C78.535294,620.103394 77.412949,614.678528 76.595627,609.208069 
	C73.997589,591.818970 71.513191,574.412781 68.986137,556.584106 
	C68.328690,546.908752 67.037071,537.655212 67.143929,528.417847 
	C67.361694,509.593018 67.925995,490.750641 69.137566,471.966461 
	C69.944305,459.458801 72.148598,447.042999 73.628067,434.574310 
	C73.765411,433.416809 73.184586,432.174042 72.937225,430.970886 
	C72.947426,430.523438 72.957626,430.075958 73.422707,429.222412 
	C74.284607,427.980194 74.850594,427.184509 75.074829,426.301971 
	C78.559555,412.587463 82.034058,398.869995 85.394043,385.124695 
	C85.703430,383.859009 85.217415,382.398926 85.100746,381.029114 
	C85.096336,380.843506 85.091927,380.657898 85.558121,380.160217 
	C88.326622,372.707825 90.624519,365.567505 92.922409,358.427155 
	C92.922417,358.427155 92.789993,358.201538 93.233208,358.045166 
	C94.053276,357.587585 94.612328,357.364685 94.780403,356.973694 
	C99.408699,346.207336 104.022636,335.434479 108.531891,324.618073 
	C108.815582,323.937592 108.230255,322.894806 108.049217,322.020569 
	C108.071716,321.827606 108.094208,321.634613 108.483818,321.183777 
	C109.000229,320.866577 109.283638,320.777710 109.278084,320.752533 
	C109.222397,320.499695 109.119247,320.257263 109.029449,320.011932 
	C119.523071,296.892456 132.587006,275.266724 147.295334,254.623917 
	C183.426834,203.914093 227.696823,161.884613 281.068604,129.614319 
	C284.769135,127.376846 288.570190,125.305626 292.873566,123.335327 
	C296.648407,121.996307 299.929596,120.585800 303.091278,118.945038 
	C330.405273,104.770271 358.686218,92.995598 388.239502,84.318520 
	C389.961853,83.812828 391.403259,82.350334 392.975403,81.333107 
	C393.409088,81.188507 393.842773,81.043900 394.677856,81.254349 
	C395.710022,81.999229 396.456360,82.840027 396.954529,82.712364 
	C407.174805,80.092972 417.379852,77.410522 427.547577,74.594780 
	C428.808075,74.245712 429.840057,73.071350 430.977905,72.279419 
	C431.424561,72.175163 431.871216,72.070900 432.925476,72.275078 
	C434.171936,72.719360 434.831085,73.034637 435.446655,72.964935 
	C452.952698,70.982666 470.456512,68.979706 487.949951,66.890297 
	C488.771393,66.792175 489.494171,65.867798 490.262878,65.328224 
M623.625610,689.293579 
	C623.444946,689.627747 623.264343,689.961853 623.111328,690.661499 
	C623.111328,690.661499 622.976990,691.002625 622.234009,691.152100 
	C621.548035,692.753418 620.367004,694.323669 620.264282,695.961670 
	C619.879211,702.102905 618.860413,708.538391 625.194580,713.586060 
	C630.627991,717.677002 636.061340,721.768005 642.181335,726.339111 
	C644.749695,726.888489 647.317200,727.912415 649.886536,727.916931 
	C700.235291,728.005737 750.584351,727.989807 800.933167,727.895020 
	C802.277466,727.892456 803.619690,726.772949 805.812439,725.998840 
	C812.458130,725.612183 819.205627,725.790405 825.709961,724.618835 
	C829.384583,723.956909 833.289795,721.724609 836.008545,719.084717 
	C850.244080,705.262085 846.302307,685.338257 827.846008,676.158203 
	C827.536865,676.177490 827.227661,676.196777 826.251038,676.212524 
	C825.826233,676.084656 825.401367,675.956787 824.872375,675.206177 
	C823.914246,675.139343 822.956116,675.072449 821.324158,675.095154 
	C820.877502,675.027771 820.430908,674.960388 819.789185,674.119812 
	C819.270447,673.771973 818.753052,673.122742 818.232849,673.120422 
	C805.717773,673.064331 793.202271,673.065430 780.687195,673.116516 
	C780.123535,673.118835 779.562317,673.687683 778.586548,674.171997 
	C778.315002,674.333557 778.133362,674.565552 777.120728,675.028503 
	C773.064026,674.977112 769.007385,674.925659 764.589355,674.414307 
	C763.742615,674.567932 762.895813,674.721619 761.208740,675.033936 
	C759.788879,674.980774 758.369019,674.927612 756.481567,674.378357 
	C755.003601,674.546326 753.525696,674.714233 751.187500,675.039795 
	C749.442993,674.989075 747.698547,674.938354 745.346802,674.329468 
	C741.583069,674.215027 737.814758,673.929077 734.056641,674.028259 
	C729.047974,674.160400 724.047241,674.591919 718.353210,675.045105 
	C717.887878,674.995361 717.422546,674.945618 716.353760,674.331970 
	C702.380920,674.217224 688.408203,674.072754 674.435120,673.998108 
	C664.942627,673.947388 655.449097,673.956970 645.957581,674.069275 
	C645.194702,674.078308 644.443787,675.095032 642.999207,675.939331 
	C639.011536,677.651733 635.023865,679.364197 630.653687,680.566895 
	C627.135010,680.768982 626.017517,682.956421 626.031433,686.028748 
	C626.031433,686.028748 626.115601,686.062378 625.389160,686.125427 
	C624.958435,687.130676 624.527771,688.135864 624.062744,689.058350 
	C624.062744,689.058350 624.151428,689.045593 623.625610,689.293579 
M574.970154,427.034088 
	C574.970154,427.034088 574.943176,427.114502 574.894531,426.417908 
	C572.908875,425.654022 570.923157,424.890137 568.144775,424.078400 
	C564.745178,423.355072 561.377747,422.299225 557.940308,421.966949 
	C544.296753,420.648224 533.372070,426.129639 523.538879,436.052185 
	C523.045166,437.067078 522.551514,438.081940 522.018372,439.021454 
	C522.018372,439.021454 522.098083,439.051239 521.388794,439.112366 
	C514.033813,447.243530 514.305054,457.059723 515.601135,466.920898 
	C515.967957,469.711548 517.802307,472.309326 519.105774,475.349396 
	C519.105774,475.349396 519.086731,475.730255 519.076050,476.338104 
	C519.552002,476.880951 520.027954,477.423828 520.966492,478.530365 
	C521.720764,479.825165 522.431396,481.147736 523.235901,482.410553 
	C533.857544,499.083160 554.460266,505.002533 570.663025,495.826599 
	C582.701904,489.008789 589.599060,478.405121 593.056030,464.716675 
	C593.029297,458.935333 593.513672,453.085175 592.748535,447.403259 
	C592.394470,444.774048 589.604004,442.472900 587.390930,439.668365 
	C586.600586,438.418823 585.810242,437.169281 584.981567,435.194611 
	C583.914795,431.663544 582.011902,429.093781 577.983643,429.010895 
	C577.983643,429.010895 577.958435,429.085052 577.879883,428.369110 
	C576.883301,427.933533 575.886780,427.497955 574.970154,427.034088 
M505.562958,309.149902 
	C504.726929,310.160339 503.890900,311.170807 502.795227,312.786255 
	C498.258820,317.209412 493.722412,321.632599 488.416290,326.093170 
	C487.640839,327.251038 486.865387,328.408875 485.808777,330.126678 
	C447.611267,367.810822 409.426727,405.508148 371.204773,443.167480 
	C363.940430,450.324890 359.797821,450.155426 352.823395,442.493896 
	C328.033813,415.262024 303.247009,388.027466 278.538177,360.722382 
	C270.287018,351.604248 259.816589,349.235718 248.499084,351.626892 
	C224.071869,356.787811 214.448807,387.514587 231.303223,406.119232 
	C267.659332,446.250641 304.104889,486.301910 340.744507,526.174011 
	C343.975830,529.690430 348.900208,531.651001 353.234283,535.019897 
	C357.554504,538.027039 362.285553,537.558350 366.832855,536.082214 
	C369.677368,535.158875 372.200165,533.244446 374.913574,531.858032 
	C374.913574,531.858032 374.818848,531.867798 375.601379,531.935852 
	C376.368530,531.170715 377.135651,530.405579 378.223206,529.082581 
	C382.335968,525.019653 386.448700,520.956726 391.311890,516.910156 
	C392.052856,516.577454 392.967010,516.420105 393.508514,515.885437 
	C400.503845,508.978027 407.491699,502.061249 414.348145,495.017120 
	C415.276672,494.063141 415.478760,492.402161 416.303345,490.462616 
	C435.019501,471.608429 453.735687,452.754272 473.219788,433.909515 
	C478.840973,429.923096 484.530792,426.000671 487.325226,418.494141 
	C495.043427,410.675049 502.750641,402.845123 510.481628,395.038666 
	C554.993713,350.092133 599.577515,305.216309 643.982910,260.164612 
	C655.796814,248.178802 654.979797,228.654160 642.756897,217.130951 
	C629.734131,204.853638 610.784912,205.655548 597.125122,219.192047 
	C585.418884,230.792664 573.874512,242.556641 562.183105,254.172333 
	C545.775452,270.473633 529.297913,286.704498 512.137512,303.010712 
	C510.180908,305.110168 508.224304,307.209595 506.120483,309.129822 
	C506.120483,309.129822 506.309631,309.264008 505.562958,309.149902 
M521.404419,678.132141 
	C520.975891,679.141846 520.547363,680.151550 520.104492,681.063232 
	C520.104492,681.063232 520.189941,681.113342 519.448669,681.132751 
	C516.465149,684.554138 514.432495,688.252441 516.030945,693.930420 
	C516.010010,697.423950 515.759583,700.933777 516.005798,704.408386 
	C517.457581,724.900818 535.945679,741.867798 555.736938,740.877197 
	C567.880615,740.269409 576.960571,733.909119 585.420288,724.957397 
	C585.906799,723.917664 586.393250,722.877869 586.895630,721.939270 
	C586.895630,721.939270 586.810242,721.882812 587.538391,721.874207 
	C596.361389,712.064880 596.838684,688.197205 587.019226,677.795776 
	C586.542236,677.290588 585.508423,677.310974 584.325195,676.906006 
	C584.092224,676.691528 583.972412,676.425964 583.975098,675.339539 
	C582.635620,674.230896 581.296143,673.122253 579.437683,671.826355 
	C578.929382,671.308167 578.421143,670.790039 577.910706,669.530701 
	C577.371338,668.741455 577.006897,667.680908 576.266541,667.203186 
	C563.287231,658.829895 546.534241,657.830017 533.077637,666.061157 
	C532.137085,666.636475 531.742126,668.103699 531.048401,669.067261 
	C531.048401,669.067261 531.143250,669.097595 530.390991,669.044067 
	C525.936890,670.530334 522.726807,673.154663 522.050415,678.038025 
	C522.050415,678.038025 522.136292,678.074890 521.404419,678.132141 
M832.618530,482.947327 
	C833.430115,482.235382 834.241699,481.523438 835.363770,480.245575 
	C844.571045,471.492615 847.028748,461.872101 842.838257,450.986694 
	C838.493774,439.701141 830.112793,434.095795 817.347351,434.028625 
	C804.552368,433.961273 791.757080,433.955963 778.357910,433.360382 
	C778.042419,433.261902 777.726929,433.077209 777.411377,433.077026 
	C734.228577,433.054108 691.045654,432.989777 647.863525,433.155365 
	C644.917236,433.166656 641.977661,434.907806 638.406372,436.180420 
	C619.916077,444.560150 616.505249,466.001343 631.532898,479.370453 
	C632.396729,480.138916 633.231934,480.939545 634.104065,482.464081 
	C637.127808,485.542145 640.374084,487.925934 645.685791,485.872650 
	C646.128906,485.948425 646.572021,486.024231 647.210999,486.872925 
	C648.399475,487.245605 649.587463,487.941711 650.776550,487.943817 
	C682.864441,488.000427 714.952393,488.008575 747.040039,487.902649 
	C748.358154,487.898285 749.672363,486.710449 751.900269,485.916748 
	C755.604492,485.955627 759.308777,485.994476 763.606995,486.617126 
	C783.799805,486.725433 803.994202,486.981964 824.183350,486.758972 
	C826.776367,486.730347 829.341858,484.210907 831.950562,482.927124 
	C831.950562,482.927124 831.863953,482.915741 832.618530,482.947327 
M776.167297,555.065552 
	C774.098022,555.015564 772.028687,554.965576 769.359131,554.348022 
	C768.876892,554.237244 768.394653,554.029663 767.912354,554.029480 
	C727.475769,554.015259 687.039062,554.002014 646.602722,554.091797 
	C645.414978,554.094482 644.229797,555.195679 642.235107,555.990662 
	C637.768433,555.278748 634.943237,558.410706 631.917114,560.687500 
	C619.622986,569.937378 618.331665,587.632263 629.612732,598.078003 
	C633.345093,601.534058 638.619446,603.324951 642.841553,606.341858 
	C644.814697,606.893372 646.787109,607.923645 648.761108,607.926636 
	C703.845642,608.011658 758.930359,608.005737 814.014893,607.911987 
	C815.338867,607.909790 816.660889,606.735168 818.653259,605.943359 
	C819.108643,605.980530 819.564087,606.017761 820.503784,606.591125 
	C821.641907,606.168213 822.780090,605.745239 824.539246,605.040649 
	C837.057068,601.483582 844.723267,592.308655 844.831848,580.667358 
	C844.915344,571.710999 840.725525,564.876648 833.953796,558.556580 
	C831.138184,557.057983 828.389587,554.426270 825.495483,554.255066 
	C812.333374,553.476257 799.130615,553.363708 785.940430,553.136169 
	C785.306885,553.125183 784.652954,554.296692 783.204468,555.057922 
	C782.121948,555.002869 781.039368,554.947815 779.595459,554.424805 
	C778.743896,554.582947 777.892273,554.741089 776.167297,555.065552 
M575.805054,613.362305 
	C577.891968,611.463013 580.219604,609.767273 582.025513,607.630432 
	C591.527832,596.387146 595.673340,583.439758 591.384155,569.150391 
	C586.926453,554.299561 575.407898,544.929688 560.996582,542.544739 
	C539.484924,538.984680 513.861206,555.292419 515.847839,582.710632 
	C516.958374,598.038452 524.226562,609.568298 537.607971,616.826294 
	C550.596558,623.871155 563.250061,621.817444 575.805054,613.362305 
z"/>
<path fill="#21969C" opacity="1.000000" stroke="none" 
	d="
M416.409790,951.976135 
	C421.014160,952.297302 426.064819,952.325867 430.949738,953.240051 
	C449.799103,956.767578 468.700195,959.675232 487.924835,960.019531 
	C502.841736,960.286682 517.755554,960.752075 532.673096,960.940613 
	C538.920471,961.019531 545.173950,960.610718 551.717407,960.722168 
	C543.421387,961.583984 534.817383,962.789062 526.246887,962.585266 
	C504.362793,962.064636 482.428894,961.659058 460.641144,959.759338 
	C445.909882,958.474915 431.392853,954.733093 416.409790,951.976135 
z"/>
<path fill="#21969C" opacity="1.000000" stroke="none" 
	d="
M72.754433,431.305542 
	C73.184586,432.174042 73.765411,433.416809 73.628067,434.574310 
	C72.148598,447.042999 69.944305,459.458801 69.137566,471.966461 
	C67.925995,490.750641 67.361694,509.593018 67.143929,528.417847 
	C67.037071,537.655212 68.328690,546.908752 68.747238,556.679688 
	C68.061890,557.464233 67.616699,557.724060 67.171509,557.983948 
	C66.775551,531.730713 65.525612,505.452179 66.301590,479.233582 
	C66.772537,463.321198 70.375633,447.501526 72.754433,431.305542 
z"/>
<path fill="#189399" opacity="1.000000" stroke="none" 
	d="
M626.620972,78.942932 
	C622.688232,78.573601 618.381775,78.210747 614.132080,77.506104 
	C597.379517,74.728355 580.741089,70.749687 563.879944,69.262573 
	C540.491943,67.199814 516.941589,66.978424 492.956543,65.942993 
	C495.126740,65.517937 497.793365,64.835526 500.476807,64.761475 
	C543.057251,63.586445 585.038574,67.864037 626.620972,78.942932 
z"/>
<path fill="#21969C" opacity="1.000000" stroke="none" 
	d="
M392.611298,81.385826 
	C391.403259,82.350334 389.961853,83.812828 388.239502,84.318520 
	C358.686218,92.995598 330.405273,104.770271 303.091278,118.945038 
	C299.929596,120.585800 296.648407,121.996307 293.217285,123.270004 
	C313.174408,111.016335 334.494385,101.427208 356.451569,93.292000 
	C368.230438,88.927879 380.305695,85.363701 392.611298,81.385826 
z"/>
<path fill="#189399" opacity="1.000000" stroke="none" 
	d="
M67.099411,558.411255 
	C67.616699,557.724060 68.061890,557.464233 68.745972,557.108765 
	C71.513191,574.412781 73.997589,591.818970 76.595627,609.208069 
	C77.412949,614.678528 78.535294,620.103394 79.229164,625.790405 
	C75.640739,609.165955 72.246246,592.317810 69.096222,575.424133 
	C68.076828,569.957092 67.698746,564.370483 67.099411,558.411255 
z"/>
<path fill="#21969C" opacity="1.000000" stroke="none" 
	d="
M489.856140,65.227356 
	C489.494171,65.867798 488.771393,66.792175 487.949951,66.890297 
	C470.456512,68.979706 452.952698,70.982666 435.446655,72.964935 
	C434.831085,73.034637 434.171936,72.719360 433.270508,72.300720 
	C451.821777,69.720772 470.635620,67.423630 489.856140,65.227356 
z"/>
<path fill="#21969C" opacity="1.000000" stroke="none" 
	d="
M84.951553,381.366150 
	C85.217415,382.398926 85.703430,383.859009 85.394043,385.124695 
	C82.034058,398.869995 78.559555,412.587463 75.074829,426.301971 
	C74.850594,427.184509 74.284607,427.980194 73.522896,428.900177 
	C77.046265,413.223785 80.924316,397.463501 84.951553,381.366150 
z"/>
<path fill="#21969C" opacity="1.000000" stroke="none" 
	d="
M107.844063,322.295990 
	C108.230255,322.894806 108.815582,323.937592 108.531891,324.618073 
	C104.022636,335.434479 99.408699,346.207336 94.780403,356.973694 
	C94.612328,357.364685 94.053276,357.587585 93.319519,357.946899 
	C97.854706,346.193787 102.746811,334.382599 107.844063,322.295990 
z"/>
<path fill="#21969C" opacity="1.000000" stroke="none" 
	d="
M430.585693,72.275261 
	C429.840057,73.071350 428.808075,74.245712 427.547577,74.594780 
	C417.379852,77.410522 407.174805,80.092972 396.954529,82.712364 
	C396.456360,82.840027 395.710022,81.999229 395.023071,81.257736 
	C406.709106,78.027748 418.451294,75.149429 430.585693,72.275261 
z"/>
<path fill="#21969C" opacity="1.000000" stroke="none" 
	d="
M554.460083,960.937561 
	C554.982239,960.267883 555.894226,959.214539 556.935608,959.065308 
	C566.636047,957.675537 576.354736,956.408569 586.079468,955.197205 
	C587.502686,955.019958 588.985474,955.321472 590.713745,955.681091 
	C578.961182,957.631592 566.935547,959.302429 554.460083,960.937561 
z"/>
<path fill="#21969C" opacity="1.000000" stroke="none" 
	d="
M92.646576,358.698822 
	C90.624519,365.567505 88.326622,372.707825 85.685333,379.912476 
	C87.684883,372.974670 90.027809,365.972565 92.646576,358.698822 
z"/>
<path fill="#189399" opacity="1.000000" stroke="none" 
	d="
M958.376221,558.922119 
	C958.497192,551.939636 958.955383,544.743652 959.700928,537.276672 
	C959.563354,544.239990 959.138367,551.474243 958.376221,558.922119 
z"/>
<path fill="#21969C" opacity="1.000000" stroke="none" 
	d="
M396.375916,947.053711 
	C402.283295,948.271057 408.537842,949.640442 414.883484,951.344604 
	C408.890717,950.188171 402.806915,948.696899 396.375916,947.053711 
z"/>
<path fill="#189399" opacity="1.000000" stroke="none" 
	d="
M960.439331,520.796997 
	C959.895630,516.876038 959.691345,512.699097 959.791138,508.234314 
	C960.323059,512.144592 960.550842,516.342834 960.439331,520.796997 
z"/>
<path fill="#189399" opacity="1.000000" stroke="none" 
	d="
M955.411194,584.874878 
	C955.526611,580.900635 955.940796,576.742981 956.613403,572.316711 
	C956.484497,576.262573 956.097168,580.477051 955.411194,584.874878 
z"/>
<path fill="#189399" opacity="1.000000" stroke="none" 
	d="
M953.204346,599.775757 
	C953.182983,597.511841 953.307800,594.994263 953.708252,592.242310 
	C953.772827,594.512695 953.561707,597.017334 953.204346,599.775757 
z"/>
<path fill="#189399" opacity="1.000000" stroke="none" 
	d="
M959.940552,496.585327 
	C959.738770,494.478882 959.589294,491.995728 959.728638,489.252441 
	C960.009216,491.397766 960.001038,493.803192 959.940552,496.585327 
z"/>
<path fill="#189399" opacity="1.000000" stroke="none" 
	d="
M956.964478,456.656006 
	C956.453125,455.091827 956.021118,453.220276 955.846985,451.145813 
	C956.417847,452.744843 956.730835,454.546783 956.964478,456.656006 
z"/>
<path fill="#189399" opacity="1.000000" stroke="none" 
	d="
M956.150879,448.743896 
	C955.522644,447.439911 955.061035,445.887024 954.851013,444.138916 
	C955.507629,445.460754 955.912598,446.977875 956.150879,448.743896 
z"/>
<path fill="#189399" opacity="1.000000" stroke="none" 
	d="
M958.940918,479.639404 
	C958.759338,478.440399 958.634766,476.919495 958.789307,475.180908 
	C959.044922,476.414642 959.021423,477.866119 958.940918,479.639404 
z"/>
<path fill="#189399" opacity="1.000000" stroke="none" 
	d="
M960.003113,486.626587 
	C959.496887,485.783783 959.033264,484.574066 958.845276,483.147949 
	C959.429199,484.040924 959.737427,485.150330 960.003113,486.626587 
z"/>
<path fill="#189399" opacity="1.000000" stroke="none" 
	d="
M953.105103,430.736206 
	C952.648315,429.856171 952.329651,428.727448 952.028198,427.223114 
	C952.444763,428.060883 952.843994,429.274200 953.105103,430.736206 
z"/>
<path fill="#189399" opacity="1.000000" stroke="none" 
	d="
M958.010498,567.687134 
	C957.771118,566.790710 957.617310,565.608337 957.719360,564.219116 
	C958.015564,565.141907 958.055847,566.271484 958.010498,567.687134 
z"/>
<path fill="#189399" opacity="1.000000" stroke="none" 
	d="
M957.943481,467.668701 
	C957.775208,466.753204 957.662659,465.543396 957.826233,464.138733 
	C958.067993,465.087372 958.033630,466.230865 957.943481,467.668701 
z"/>
<path fill="#189399" opacity="1.000000" stroke="none" 
	d="
M958.988525,472.650513 
	C958.487488,472.104706 958.032471,471.218506 957.838501,470.138519 
	C958.411316,470.733185 958.722900,471.521698 958.988525,472.650513 
z"/>
<path fill="#189399" opacity="1.000000" stroke="none" 
	d="
M959.937866,534.541138 
	C959.716736,533.158386 959.546326,531.355286 959.628052,529.299072 
	C959.916321,530.737549 959.952393,532.429199 959.937866,534.541138 
z"/>
<path fill="#189399" opacity="1.000000" stroke="none" 
	d="
M951.131104,420.780823 
	C950.798401,420.122131 950.621582,419.255493 950.688599,418.206665 
	C951.050659,418.873932 951.168884,419.723419 951.131104,420.780823 
z"/>
<path fill="#189399" opacity="1.000000" stroke="none" 
	d="
M953.965698,436.571686 
	C953.589050,435.514160 953.301880,434.069458 953.030457,432.233368 
	C953.382507,433.289490 953.718872,434.737000 953.965698,436.571686 
z"/>
<path fill="#189399" opacity="1.000000" stroke="none" 
	d="
M957.963135,460.686157 
	C957.501648,460.411194 957.073181,459.833130 956.883423,459.093933 
	C957.413391,459.416199 957.704712,459.899597 957.963135,460.686157 
z"/>
<path fill="#189399" opacity="1.000000" stroke="none" 
	d="
M955.049927,441.612671 
	C954.635254,440.855347 954.324158,439.729706 954.027344,438.230377 
	C954.412292,438.985901 954.782898,440.115112 955.049927,441.612671 
z"/>
<path fill="#189399" opacity="1.000000" stroke="none" 
	d="
M951.963501,425.586121 
	C951.589966,424.836945 951.298279,423.712799 951.026245,422.219116 
	C951.379089,422.970093 951.712219,424.090607 951.963501,425.586121 
z"/>
<path fill="#189399" opacity="1.000000" stroke="none" 
	d="
M954.354065,590.956177 
	C954.193970,590.225037 954.347900,589.312988 954.781189,588.186096 
	C954.929749,588.905945 954.798950,589.840637 954.354065,590.956177 
z"/>
<path fill="#21969C" opacity="1.000000" stroke="none" 
	d="
M108.892700,320.145172 
	C109.119247,320.257263 109.222397,320.499695 109.278084,320.752533 
	C109.283638,320.777710 109.000229,320.866577 108.660034,320.951660 
	C108.498207,320.717133 108.593819,320.484131 108.892700,320.145172 
z"/>
<path fill="#189399" opacity="1.000000" stroke="none" 
	d="
M959.911011,504.733459 
	C959.715698,504.809631 959.550049,504.665009 959.430420,504.489075 
	C959.401489,504.446503 959.524719,504.300598 959.724976,504.118652 
	C959.871948,504.035065 959.957581,504.501160 959.911011,504.733459 
z"/>
<path fill="#189399" opacity="1.000000" stroke="none" 
	d="
M959.922729,501.735291 
	C959.779785,501.712921 959.680908,501.456543 959.731812,501.116394 
	C959.881531,501.032623 959.966797,501.501251 959.922729,501.735291 
z"/>
<path fill="#FBF5EA" opacity="1.000000" stroke="none" 
	d="
M512.850281,302.965485 
	C529.297913,286.704498 545.775452,270.473633 562.183105,254.172333 
	C573.874512,242.556641 585.418884,230.792664 597.125122,219.192047 
	C610.784912,205.655548 629.734131,204.853638 642.756897,217.130951 
	C654.979797,228.654160 655.796814,248.178802 643.982910,260.164612 
	C599.577515,305.216309 554.993713,350.092133 510.481628,395.038666 
	C502.750641,402.845123 495.043427,410.675049 486.891174,418.961548 
	C481.788727,424.252716 477.120300,429.076416 472.451843,433.900085 
	C453.735687,452.754272 435.019501,471.608429 415.872986,490.926453 
	C407.148926,499.891449 398.855194,508.392609 390.561462,516.893799 
	C386.448700,520.956726 382.335968,525.019653 377.767334,529.492065 
	C376.480621,530.557007 375.649750,531.212402 374.818848,531.867798 
	C374.818848,531.867798 374.913574,531.858032 374.524109,531.902100 
	C367.417847,535.527893 360.333588,535.863342 353.038269,534.334167 
	C348.900208,531.651001 343.975830,529.690430 340.744507,526.174011 
	C304.104889,486.301910 267.659332,446.250641 231.303223,406.119232 
	C214.448807,387.514587 224.071869,356.787811 248.499084,351.626892 
	C259.816589,349.235718 270.287018,351.604248 278.538177,360.722382 
	C303.247009,388.027466 328.033813,415.262024 352.823395,442.493896 
	C359.797821,450.155426 363.940430,450.324890 371.204773,443.167480 
	C409.426727,405.508148 447.611267,367.810822 486.242310,329.663666 
	C487.512543,328.152344 488.349274,327.104034 489.186005,326.055756 
	C493.722412,321.632599 498.258820,317.209412 503.228027,312.367371 
	C504.543762,311.053680 505.426697,310.158844 506.309631,309.264008 
	C506.309631,309.264008 506.120483,309.129822 506.497742,309.097961 
	C508.866760,307.032532 510.858521,304.998993 512.850281,302.965485 
z"/>
<path fill="#FAF5EA" opacity="1.000000" stroke="none" 
	d="
M763.013000,486.033325 
	C759.308777,485.994476 755.604492,485.955627 750.979370,485.939331 
	C715.710632,486.007965 681.362915,486.053986 647.015137,486.100037 
	C646.572021,486.024231 646.128906,485.948425 645.016235,485.772095 
	C640.924561,484.356110 637.502502,483.040649 634.080444,481.725220 
	C633.231934,480.939545 632.396729,480.138916 631.532898,479.370453 
	C616.505249,466.001343 619.916077,444.560150 639.133789,435.980865 
	C642.821228,435.484650 645.779236,434.953186 648.741699,434.926971 
	C686.810608,434.590393 724.880127,434.325928 763.066650,434.150635 
	C763.183716,434.258057 763.654175,434.279572 763.654175,434.279572 
	C763.654175,434.279572 764.042480,434.036499 764.505127,434.064270 
	C769.632507,434.035858 774.297180,433.979675 778.961914,433.923492 
	C791.757080,433.955963 804.552368,433.961273 817.347351,434.028625 
	C830.112793,434.095795 838.493774,439.701141 842.838257,450.986694 
	C847.028748,461.872101 844.571045,471.492615 834.901489,480.636749 
	C833.580872,481.657196 832.722412,482.286469 831.863953,482.915771 
	C831.863953,482.915741 831.950562,482.927124 831.548157,482.958435 
	C827.429077,483.735809 823.726318,485.040955 819.993408,485.133881 
	C801.004211,485.606293 782.007263,485.764862 763.013000,486.033325 
z"/>
<path fill="#FBF6EB" opacity="1.000000" stroke="none" 
	d="
M716.957214,674.895874 
	C717.422546,674.945618 717.887878,674.995361 719.161865,675.016968 
	C728.631653,674.955017 737.292847,674.921326 745.954041,674.887634 
	C747.698547,674.938354 749.442993,674.989075 752.024353,675.007202 
	C754.223877,674.941162 755.586487,674.907776 756.949158,674.874390 
	C758.369019,674.927612 759.788879,674.980774 761.990051,675.001770 
	C763.497803,674.937866 764.224243,674.906067 764.950684,674.874268 
	C769.007385,674.925659 773.064026,674.977112 777.819519,674.985229 
	C778.518311,674.941895 778.988525,674.833801 779.452698,674.907837 
	C793.272644,674.952148 806.628479,674.922546 819.984253,674.892944 
	C820.430908,674.960388 820.877502,675.027771 821.950195,675.169922 
	C823.376404,675.439392 824.176453,675.634155 824.976562,675.828918 
	C825.401367,675.956787 825.826233,676.084656 826.807129,676.372803 
	C827.542175,676.566345 827.721130,676.599670 827.900024,676.632996 
	C846.302307,685.338257 850.244080,705.262085 836.008545,719.084717 
	C833.289795,721.724609 829.384583,723.956909 825.709961,724.618835 
	C819.205627,725.790405 812.458130,725.612183 804.924072,726.034668 
	C749.855408,726.000000 695.675049,725.929443 641.494751,725.858948 
	C636.061340,721.768005 630.627991,717.677002 625.003052,712.917542 
	C620.868347,705.454590 620.904541,698.316528 622.976990,691.002625 
	C622.976990,691.002625 623.111328,690.661499 623.351135,690.341064 
	C623.777771,689.695679 623.964600,689.370605 624.151428,689.045593 
	C624.151428,689.045593 624.062744,689.058350 624.340576,688.925110 
	C625.117432,687.882019 625.616516,686.972229 626.115601,686.062378 
	C626.115601,686.062378 626.031433,686.028748 626.320740,685.891113 
	C628.085388,684.194580 629.560791,682.635559 631.036194,681.076599 
	C635.023865,679.364197 639.011536,677.651733 643.761108,675.777466 
	C647.677124,675.427673 650.830627,675.090881 653.985596,675.076111 
	C674.975952,674.977600 695.966614,674.947876 716.957214,674.895874 
z"/>
<path fill="#FBF6EA" opacity="1.000000" stroke="none" 
	d="
M820.019470,606.054932 
	C819.564087,606.017761 819.108643,605.980530 817.852783,605.982239 
	C801.064331,606.041687 785.076355,606.095337 769.088440,606.076416 
	C727.121887,606.026855 685.155396,605.945679 643.188843,605.877075 
	C638.619446,603.324951 633.345093,601.534058 629.612732,598.078003 
	C618.331665,587.632263 619.622986,569.937378 631.917114,560.687500 
	C634.943237,558.410706 637.768433,555.278748 643.080811,555.926392 
	C646.289612,555.781250 648.652710,555.700317 651.339050,555.709290 
	C652.091431,555.699463 652.520569,555.599854 653.403015,555.557861 
	C656.590332,555.532043 659.324402,555.448547 662.280762,555.468628 
	C662.503113,555.572144 662.939026,555.347229 663.361206,555.433472 
	C666.607178,555.479309 669.430847,555.416199 672.254700,555.401733 
	C704.822937,555.235474 737.391174,555.076477 769.959412,554.915588 
	C772.028687,554.965576 774.098022,555.015564 776.967041,555.031006 
	C778.496765,554.961914 779.226807,554.927368 779.956848,554.892761 
	C781.039368,554.947815 782.121948,555.002869 784.071777,555.043030 
	C793.934631,555.013977 802.936523,555.202515 811.923950,554.924194 
	C819.695923,554.683472 827.164001,555.382568 834.053528,559.312195 
	C840.725525,564.876648 844.915344,571.710999 844.831848,580.667358 
	C844.723267,592.308655 837.057068,601.483582 823.830566,605.203247 
	C822.087708,605.595581 821.053589,605.825256 820.019470,606.054932 
z"/>
<path fill="#FAF5EA" opacity="1.000000" stroke="none" 
	d="
M575.515381,613.576599 
	C563.250061,621.817444 550.596558,623.871155 537.607971,616.826294 
	C524.226562,609.568298 516.958374,598.038452 515.847839,582.710632 
	C513.861206,555.292419 539.484924,538.984680 560.996582,542.544739 
	C575.407898,544.929688 586.926453,554.299561 591.384155,569.150391 
	C595.673340,583.439758 591.527832,596.387146 582.025513,607.630432 
	C580.219604,609.767273 577.891968,611.463013 575.515381,613.576599 
z"/>
<path fill="#FAF5EB" opacity="1.000000" stroke="none" 
	d="
M577.912842,670.271851 
	C578.421143,670.790039 578.929382,671.308167 579.854370,672.198853 
	C581.502563,673.750732 582.734192,674.929993 583.965759,676.109314 
	C583.972412,676.425964 584.092224,676.691528 584.663879,677.324951 
	C595.699280,692.043457 594.632751,706.824768 586.810242,721.882812 
	C586.810242,721.882812 586.895630,721.939270 586.617249,722.079224 
	C585.774414,723.169556 585.209961,724.119995 584.645569,725.070435 
	C576.960571,733.909119 567.880615,740.269409 555.736938,740.877197 
	C535.945679,741.867798 517.457581,724.900818 516.005798,704.408386 
	C515.759583,700.933777 516.010010,697.423950 516.158752,693.133423 
	C517.587708,688.595398 518.888794,684.854370 520.189941,681.113342 
	C520.189941,681.113342 520.104492,681.063232 520.371399,680.935120 
	C521.137634,679.896301 521.636963,678.985596 522.136292,678.074890 
	C522.136292,678.074890 522.050415,678.038025 522.351013,677.907104 
	C525.482178,674.883362 528.312683,671.990479 531.143250,669.097595 
	C531.143250,669.097595 531.048401,669.067261 531.406311,669.004028 
	C547.455505,658.690796 562.805542,660.274170 577.912842,670.271851 
z"/>
<path fill="#FAF5EA" opacity="1.000000" stroke="none" 
	d="
M585.019897,435.919739 
	C585.810242,437.169281 586.600586,438.418823 587.750244,440.198059 
	C592.697693,448.252045 593.716125,456.397156 592.324341,464.961487 
	C589.599060,478.405121 582.701904,489.008789 570.663025,495.826599 
	C554.460266,505.002533 533.857544,499.083160 523.235901,482.410553 
	C522.431396,481.147736 521.720764,479.825165 520.655151,477.986603 
	C519.924744,476.871979 519.505737,476.301117 519.086731,475.730255 
	C519.086731,475.730255 519.105774,475.349396 519.003296,474.772278 
	C515.001038,462.028809 515.559021,450.267944 522.098083,439.051239 
	C522.098083,439.051239 522.018372,439.021454 522.302917,438.870331 
	C523.156372,437.792084 523.725342,436.864990 524.294250,435.937866 
	C533.372070,426.129639 544.296753,420.648224 557.940308,421.966949 
	C561.377747,422.299225 564.745178,423.355072 568.777100,424.338562 
	C571.254028,425.437317 573.098572,426.275909 574.943176,427.114502 
	C574.943176,427.114502 574.970154,427.034088 575.109985,427.304138 
	C576.152710,428.077789 577.055542,428.581421 577.958435,429.085052 
	C577.958435,429.085052 577.983643,429.010895 578.134644,429.303040 
	C580.530457,431.703369 582.775146,433.811554 585.019897,435.919739 
z"/>
<path fill="#189399" opacity="1.000000" stroke="none" 
	d="
M643.015198,606.109497 
	C685.155396,605.945679 727.121887,606.026855 769.088440,606.076416 
	C785.076355,606.095337 801.064331,606.041687 817.518066,606.064209 
	C816.660889,606.735168 815.338867,607.909790 814.014893,607.911987 
	C758.930359,608.005737 703.845642,608.011658 648.761108,607.926636 
	C646.787109,607.923645 644.814697,606.893372 643.015198,606.109497 
z"/>
<path fill="#098B94" opacity="1.000000" stroke="none" 
	d="
M641.838013,726.098999 
	C695.675049,725.929443 749.855408,726.000000 804.499268,726.122437 
	C803.619690,726.772949 802.277466,727.892456 800.933167,727.895020 
	C750.584351,727.989807 700.235291,728.005737 649.886536,727.916931 
	C647.317200,727.912415 644.749695,726.888489 641.838013,726.098999 
z"/>
<path fill="#189399" opacity="1.000000" stroke="none" 
	d="
M647.113037,486.486450 
	C681.362915,486.053986 715.710632,486.007965 750.523438,486.017975 
	C749.672363,486.710449 748.358154,487.898285 747.040039,487.902649 
	C714.952393,488.008575 682.864441,488.000427 650.776550,487.943817 
	C649.587463,487.941711 648.399475,487.245605 647.113037,486.486450 
z"/>
<path fill="#098B94" opacity="1.000000" stroke="none" 
	d="
M762.949524,434.043213 
	C724.880127,434.325928 686.810608,434.590393 648.741699,434.926971 
	C645.779236,434.953186 642.821228,435.484650 639.448059,435.812866 
	C641.977661,434.907806 644.917236,433.166656 647.863525,433.155365 
	C691.045654,432.989777 734.228577,433.054108 777.411377,433.077026 
	C777.726929,433.077209 778.042419,433.261902 778.659912,433.641937 
	C774.297180,433.979675 769.632507,434.035858 764.231445,434.003052 
	C763.313293,433.957123 763.131409,434.000153 762.949524,434.043213 
z"/>
<path fill="#098B94" opacity="1.000000" stroke="none" 
	d="
M662.058411,555.365112 
	C659.324402,555.448547 656.590332,555.532043 653.235474,555.402832 
	C652.081665,555.333252 651.548767,555.476379 651.015808,555.619446 
	C648.652710,555.700317 646.289612,555.781250 643.484985,555.823364 
	C644.229797,555.195679 645.414978,554.094482 646.602722,554.091797 
	C687.039062,554.002014 727.475769,554.015259 767.912354,554.029480 
	C768.394653,554.029663 768.876892,554.237244 769.659302,554.631836 
	C737.391174,555.076477 704.822937,555.235474 672.254700,555.401733 
	C669.430847,555.416199 666.607178,555.479309 663.267151,555.342041 
	C662.470459,555.065552 662.239624,555.132507 662.058411,555.365112 
z"/>
<path fill="#21969C" opacity="1.000000" stroke="none" 
	d="
M834.003662,558.934387 
	C827.164001,555.382568 819.695923,554.683472 811.923950,554.924194 
	C802.936523,555.202515 793.934631,555.013977 784.473755,554.972900 
	C784.652954,554.296692 785.306885,553.125183 785.940430,553.136169 
	C799.130615,553.363708 812.333374,553.476257 825.495483,554.255066 
	C828.389587,554.426270 831.138184,557.057983 834.003662,558.934387 
z"/>
<path fill="#189399" opacity="1.000000" stroke="none" 
	d="
M763.309998,486.325226 
	C782.007263,485.764862 801.004211,485.606293 819.993408,485.133881 
	C823.726318,485.040955 827.429077,483.735809 831.532959,482.917542 
	C829.341858,484.210907 826.776367,486.730347 824.183350,486.758972 
	C803.994202,486.981964 783.799805,486.725433 763.309998,486.325226 
z"/>
<path fill="#21969C" opacity="1.000000" stroke="none" 
	d="
M577.911743,669.901245 
	C562.805542,660.274170 547.455505,658.690796 531.428833,669.048462 
	C531.742126,668.103699 532.137085,666.636475 533.077637,666.061157 
	C546.534241,657.830017 563.287231,658.829895 576.266541,667.203186 
	C577.006897,667.680908 577.371338,668.741455 577.911743,669.901245 
z"/>
<path fill="#21969C" opacity="1.000000" stroke="none" 
	d="
M587.174316,721.878540 
	C594.632751,706.824768 595.699280,692.043457 584.868286,677.415222 
	C585.508423,677.310974 586.542236,677.290588 587.019226,677.795776 
	C596.838684,688.197205 596.361389,712.064880 587.174316,721.878540 
z"/>
<path fill="#189399" opacity="1.000000" stroke="none" 
	d="
M819.886719,674.506348 
	C806.628479,674.922546 793.272644,674.952148 779.456482,674.697510 
	C778.996094,674.413208 779.000000,673.992676 779.000000,673.992676 
	C779.562317,673.687683 780.123535,673.118835 780.687195,673.116516 
	C793.202271,673.065430 805.717773,673.064331 818.232849,673.120422 
	C818.753052,673.122742 819.270447,673.771973 819.886719,674.506348 
z"/>
<path fill="#098B94" opacity="1.000000" stroke="none" 
	d="
M716.655518,674.613892 
	C695.966614,674.947876 674.975952,674.977600 653.985596,675.076111 
	C650.830627,675.090881 647.677124,675.427673 644.105164,675.629517 
	C644.443787,675.095032 645.194702,674.078308 645.957581,674.069275 
	C655.449097,673.956970 664.942627,673.947388 674.435120,673.998108 
	C688.408203,674.072754 702.380920,674.217224 716.655518,674.613892 
z"/>
<path fill="#189399" opacity="1.000000" stroke="none" 
	d="
M390.936646,516.901978 
	C398.855194,508.392609 407.148926,499.891449 415.729919,491.229401 
	C415.478760,492.402161 415.276672,494.063141 414.348145,495.017120 
	C407.491699,502.061249 400.503845,508.978027 393.508514,515.885437 
	C392.967010,516.420105 392.052856,516.577454 390.936646,516.901978 
z"/>
<path fill="#21969C" opacity="1.000000" stroke="none" 
	d="
M521.743408,439.081787 
	C515.559021,450.267944 515.001038,462.028809 518.932251,474.595398 
	C517.802307,472.309326 515.967957,469.711548 515.601135,466.920898 
	C514.305054,457.059723 514.033813,447.243530 521.743408,439.081787 
z"/>
<path fill="#21969C" opacity="1.000000" stroke="none" 
	d="
M622.605469,691.077393 
	C620.904541,698.316528 620.868347,705.454590 624.843750,712.618530 
	C618.860413,708.538391 619.879211,702.102905 620.264282,695.961670 
	C620.367004,694.323669 621.548035,692.753418 622.605469,691.077393 
z"/>
<path fill="#189399" opacity="1.000000" stroke="none" 
	d="
M592.690186,464.839081 
	C593.716125,456.397156 592.697693,448.252045 588.013794,440.375427 
	C589.604004,442.472900 592.394470,444.774048 592.748535,447.403259 
	C593.513672,453.085175 593.029297,458.935333 592.690186,464.839081 
z"/>
<path fill="#189399" opacity="1.000000" stroke="none" 
	d="
M472.835815,433.904816 
	C477.120300,429.076416 481.788727,424.252716 486.740692,419.263977 
	C484.530792,426.000671 478.840973,429.923096 472.835815,433.904816 
z"/>
<path fill="#189399" opacity="1.000000" stroke="none" 
	d="
M353.136292,534.677002 
	C360.333588,535.863342 367.417847,535.527893 374.501007,531.860474 
	C372.200165,533.244446 369.677368,535.158875 366.832855,536.082214 
	C362.285553,537.558350 357.554504,538.027039 353.136292,534.677002 
z"/>
<path fill="#098B94" opacity="1.000000" stroke="none" 
	d="
M745.650391,674.608521 
	C737.292847,674.921326 728.631653,674.955017 719.506775,674.941833 
	C724.047241,674.591919 729.047974,674.160400 734.056641,674.028259 
	C737.814758,673.929077 741.583069,674.215027 745.650391,674.608521 
z"/>
<path fill="#21969C" opacity="1.000000" stroke="none" 
	d="
M519.819336,681.123047 
	C518.888794,684.854370 517.587708,688.595398 516.139893,692.666870 
	C514.432495,688.252441 516.465149,684.554138 519.819336,681.123047 
z"/>
<path fill="#21969C" opacity="1.000000" stroke="none" 
	d="
M530.767090,669.070801 
	C528.312683,671.990479 525.482178,674.883362 522.366821,677.951111 
	C522.726807,673.154663 525.936890,670.530334 530.767090,669.070801 
z"/>
<path fill="#189399" opacity="1.000000" stroke="none" 
	d="
M634.092285,482.094635 
	C637.502502,483.040649 640.924561,484.356110 644.680481,485.816895 
	C640.374084,487.925934 637.127808,485.542145 634.092285,482.094635 
z"/>
<path fill="#189399" opacity="1.000000" stroke="none" 
	d="
M585.000732,435.557190 
	C582.775146,433.811554 580.530457,431.703369 578.099976,429.321167 
	C582.011902,429.093781 583.914795,431.663544 585.000732,435.557190 
z"/>
<path fill="#189399" opacity="1.000000" stroke="none" 
	d="
M512.493896,302.988098 
	C510.858521,304.998993 508.866760,307.032532 506.571350,309.187561 
	C508.224304,307.209595 510.180908,305.110168 512.493896,302.988098 
z"/>
<path fill="#21969C" opacity="1.000000" stroke="none" 
	d="
M630.844971,680.821777 
	C629.560791,682.635559 628.085388,684.194580 626.339844,685.932251 
	C626.017517,682.956421 627.135010,680.768982 630.844971,680.821777 
z"/>
<path fill="#189399" opacity="1.000000" stroke="none" 
	d="
M574.918823,426.766205 
	C573.098572,426.275909 571.254028,425.437317 569.173462,424.362488 
	C570.923157,424.890137 572.908875,425.654022 574.918823,426.766205 
z"/>
<path fill="#21969C" opacity="1.000000" stroke="none" 
	d="
M583.970459,675.724426 
	C582.734192,674.929993 581.502563,673.750732 580.113831,672.292480 
	C581.296143,673.122253 582.635620,674.230896 583.970459,675.724426 
z"/>
<path fill="#189399" opacity="1.000000" stroke="none" 
	d="
M488.801147,326.074463 
	C488.349274,327.104034 487.512543,328.152344 486.382874,329.383698 
	C486.865387,328.408875 487.640839,327.251038 488.801147,326.074463 
z"/>
<path fill="#189399" opacity="1.000000" stroke="none" 
	d="
M505.936279,309.206970 
	C505.426697,310.158844 504.543762,311.053680 503.357880,312.064880 
	C503.890900,311.170807 504.726929,310.160339 505.936279,309.206970 
z"/>
<path fill="#189399" opacity="1.000000" stroke="none" 
	d="
M577.919189,428.727081 
	C577.055542,428.581421 576.152710,428.077789 575.070007,427.318268 
	C575.886780,427.497955 576.883301,427.933533 577.919189,428.727081 
z"/>
<path fill="#21969C" opacity="1.000000" stroke="none" 
	d="
M585.032959,725.013916 
	C585.209961,724.119995 585.774414,723.169556 586.609314,722.028625 
	C586.393250,722.877869 585.906799,723.917664 585.032959,725.013916 
z"/>
<path fill="#21969C" opacity="1.000000" stroke="none" 
	d="
M625.752380,686.093872 
	C625.616516,686.972229 625.117432,687.882019 624.357666,688.966492 
	C624.527771,688.135864 624.958435,687.130676 625.752380,686.093872 
z"/>
<path fill="#21969C" opacity="1.000000" stroke="none" 
	d="
M523.916565,435.995026 
	C523.725342,436.864990 523.156372,437.792084 522.322632,438.908020 
	C522.551514,438.081940 523.045166,437.067078 523.916565,435.995026 
z"/>
<path fill="#21969C" opacity="1.000000" stroke="none" 
	d="
M521.770386,678.103516 
	C521.636963,678.985596 521.137634,679.896301 520.378540,680.984131 
	C520.547363,680.151550 520.975891,679.141846 521.770386,678.103516 
z"/>
<path fill="#189399" opacity="1.000000" stroke="none" 
	d="
M824.924438,675.517578 
	C824.176453,675.634155 823.376404,675.439392 822.287109,675.125122 
	C822.956116,675.072449 823.914246,675.139343 824.924438,675.517578 
z"/>
<path fill="#098B94" opacity="1.000000" stroke="none" 
	d="
M756.715332,674.626343 
	C755.586487,674.907776 754.223877,674.941162 752.454468,674.928406 
	C753.525696,674.714233 755.003601,674.546326 756.715332,674.626343 
z"/>
<path fill="#189399" opacity="1.000000" stroke="none" 
	d="
M832.241211,482.931549 
	C832.722412,482.286469 833.580872,481.657196 834.746216,480.919708 
	C834.241699,481.523438 833.430115,482.235382 832.241211,482.931549 
z"/>
<path fill="#189399" opacity="1.000000" stroke="none" 
	d="
M375.210114,531.901855 
	C375.649750,531.212402 376.480621,530.557007 377.607117,529.771057 
	C377.135651,530.405579 376.368530,531.170715 375.210114,531.901855 
z"/>
<path fill="#189399" opacity="1.000000" stroke="none" 
	d="
M820.261597,606.322998 
	C821.053589,605.825256 822.087708,605.595581 823.520020,605.344116 
	C822.780090,605.745239 821.641907,606.168213 820.261597,606.322998 
z"/>
<path fill="#098B94" opacity="1.000000" stroke="none" 
	d="
M764.770020,674.644287 
	C764.224243,674.906067 763.497803,674.937866 762.410156,674.922424 
	C762.895813,674.721619 763.742615,674.567932 764.770020,674.644287 
z"/>
<path fill="#21969C" opacity="1.000000" stroke="none" 
	d="
M519.081421,476.034180 
	C519.505737,476.301117 519.924744,476.871979 520.423828,477.704773 
	C520.027954,477.423828 519.552002,476.880951 519.081421,476.034180 
z"/>
<path fill="#098B94" opacity="1.000000" stroke="none" 
	d="
M779.776123,554.658813 
	C779.226807,554.927368 778.496765,554.961914 777.403687,554.947876 
	C777.892273,554.741089 778.743896,554.582947 779.776123,554.658813 
z"/>
<path fill="#21969C" opacity="1.000000" stroke="none" 
	d="
M623.888550,689.169556 
	C623.964600,689.370605 623.777771,689.695679 623.337341,690.158325 
	C623.264343,689.961853 623.444946,689.627747 623.888550,689.169556 
z"/>
<path fill="#189399" opacity="1.000000" stroke="none" 
	d="
M827.873047,676.395630 
	C827.721130,676.599670 827.542175,676.566345 827.140869,676.374512 
	C827.227661,676.196777 827.536865,676.177490 827.873047,676.395630 
z"/>
<path fill="#098B94" opacity="1.000000" stroke="none" 
	d="
M778.793274,674.082336 
	C779.000000,673.992676 778.996094,674.413208 778.992310,674.623535 
	C778.988525,674.833801 778.518311,674.941895 778.279907,674.904907 
	C778.133362,674.565552 778.315002,674.333557 778.793274,674.082336 
z"/>
<path fill="#55ACAF" opacity="1.000000" stroke="none" 
	d="
M763.066650,434.150635 
	C763.131409,434.000153 763.313293,433.957123 763.768799,433.975281 
	C764.042480,434.036499 763.654175,434.279572 763.654175,434.279572 
	C763.654175,434.279572 763.183716,434.258057 763.066650,434.150635 
z"/>
<path fill="#309DA2" opacity="1.000000" stroke="none" 
	d="
M651.339050,555.709290 
	C651.548767,555.476379 652.081665,555.333252 652.782166,555.345154 
	C652.520569,555.599854 652.091431,555.699463 651.339050,555.709290 
z"/>
<path fill="#309DA2" opacity="1.000000" stroke="none" 
	d="
M662.280762,555.468628 
	C662.239624,555.132507 662.470459,555.065552 662.844971,555.255737 
	C662.939026,555.347229 662.503113,555.572144 662.280762,555.468628 
z"/>
</svg>